<?xml version="1.0" encoding="UTF-8" standalone="no"?>
<svg
   xmlns:dc="http://purl.org/dc/elements/1.1/"
   xmlns:cc="http://creativecommons.org/ns#"
   xmlns:rdf="http://www.w3.org/1999/02/22-rdf-syntax-ns#"
   xmlns:svg="http://www.w3.org/2000/svg"
   xmlns="http://www.w3.org/2000/svg"
   xmlns:sodipodi="http://sodipodi.sourceforge.net/DTD/sodipodi-0.dtd"
   xmlns:inkscape="http://www.inkscape.org/namespaces/inkscape"
   id="Layer_1"
   data-name="Layer 1"
   viewBox="0 0 400 960"
   version="1.1"
   sodipodi:docname="fridge-2827034.svg"
   inkscape:version="0.92.2 (5c3e80d, 2017-08-06)"
   width="400"
   height="960">
  <metadata
     id="metadata53">
    <rdf:RDF>
      <cc:Work
         rdf:about="">
        <dc:format>image/svg+xml</dc:format>
        <dc:type
           rdf:resource="http://purl.org/dc/dcmitype/StillImage" />
        <dc:title>Fridge</dc:title>
      </cc:Work>
    </rdf:RDF>
  </metadata>
  <sodipodi:namedview
     pagecolor="#ffffff"
     bordercolor="#666666"
     borderopacity="1"
     objecttolerance="10"
     gridtolerance="10"
     guidetolerance="10"
     inkscape:pageopacity="0"
     inkscape:pageshadow="2"
     inkscape:window-width="1854"
     inkscape:window-height="1051"
     id="namedview51"
     showgrid="false"
     inkscape:zoom="0.70264084"
     inkscape:cx="-81.25639"
     inkscape:cy="470.68391"
     inkscape:window-x="66"
     inkscape:window-y="0"
     inkscape:window-maximized="1"
     inkscape:current-layer="Layer_1" />
  <defs
     id="defs4">
    <style
       id="style2">.cls-1{fill:#999;}.cls-2{fill:#ccc;}.cls-3{fill:#333;}.cls-4{fill:#e6e6e6;}.cls-5{fill:#29abe2;}.cls-6{fill:#0071bc;}.cls-7{fill:#ff0;}.cls-8{fill:#fbb03b;}.cls-9{fill:#ed1c24;}.cls-10{fill:#3fa9f5;}.cls-11{fill:#1b1464;}</style>
  </defs>
  <title
     id="title6">Fridge</title>
  <g
     id="g191"
     transform="matrix(0.9929909,0,0,0.9929909,0.90532455,16.658647)">
    <path
       id="path8"
       transform="translate(-399.5,-125)"
       d="m 794.5,1075 h -390 V 150 a 25,25 0 0 1 25,-25 h 340 a 25,25 0 0 1 25,25 z"
       class="cls-1"
       inkscape:connector-curvature="0"
       style="fill:#999999" />
    <path
       style="fill:#e6e6e6"
       transform="translate(-399.5,-125)"
       id="path10"
       d="m 800.5,425 h -400 V 150 a 25,25 0 0 1 25,-25 h 350 a 25,25 0 0 1 25,25 z"
       class="cls-2"
       inkscape:connector-curvature="0" />
    <rect
       style="fill:#ececec"
       id="rect12"
       height="600"
       width="400"
       y="310"
       class="cls-2"
       x="0" />
    <rect
       id="rect14"
       ry="5"
       rx="5"
       height="10"
       width="100"
       y="920"
       x="150"
       class="cls-3"
       style="fill:#333333" />
    <rect
       id="rect16"
       ry="5"
       rx="5"
       height="10"
       width="100"
       y="920"
       x="30"
       class="cls-3"
       style="fill:#333333" />
    <rect
       id="rect18"
       ry="5"
       rx="5"
       height="10"
       width="100"
       y="920"
       x="270"
       class="cls-3"
       style="fill:#333333" />
    <rect
       id="rect22"
       ry="5"
       rx="5"
       height="400"
       width="20"
       y="370"
       x="20"
       class="cls-1"
       style="fill:#999999" />
    <g
       transform="translate(5.9788865,313.62335)"
       id="g99">
      <rect
         style="fill:#e6e6e6"
         class="cls-4"
         x="530.89001"
         y="188.36"
         width="60"
         height="110"
         transform="rotate(-74.2,278.51654,444.974)"
         id="rect24" />
      <rect
         style="fill:#29abe2"
         class="cls-5"
         x="535.89001"
         y="193.36"
         width="50"
         height="100"
         transform="rotate(-74.2,278.51654,444.974)"
         id="rect26" />
      <rect
         style="fill:#0071bc"
         class="cls-6"
         x="544.98999"
         y="205.39"
         width="25"
         height="100"
         transform="rotate(-74.2,275.11447,457.00272)"
         id="rect28" />
      <circle
         style="fill:#ffff00"
         class="cls-7"
         cx="564.78003"
         cy="231.47"
         r="7.5"
         transform="rotate(-74.2,282.39884,433.07984)"
         id="circle30" />
      <rect
         style="fill:#fbb03b"
         class="cls-8"
         x="549.35999"
         y="211.16"
         width="13"
         height="100"
         transform="rotate(-74.2,273.48321,462.77365)"
         id="rect32" />
      <circle
         style="fill:#ed1c24"
         class="cls-9"
         cx="608.67999"
         cy="236.10001"
         r="15"
         transform="rotate(-74.2,326.29746,437.71069)"
         id="circle34" />
    </g>
    <rect
       id="rect36"
       transform="rotate(-5.9899993)"
       height="73.071312"
       width="73.071312"
       y="381.104"
       x="237.50052"
       class="cls-10"
       style="fill:#ffff00;stroke-width:1.04387593" />
    <path
       style="stroke-width:1.04387593"
       id="path38"
       d="m 342.00089,381.97796 -51.90659,5.44701 c -1.97851,0.20474 -1.97824,3.34965 0.0258,3.13015 l 51.90659,-5.44701 c 1.9785,-0.20474 1.97823,-3.34965 -0.0258,-3.13015 z"
       inkscape:connector-curvature="0" />
    <path
       style="stroke-width:1.04387593"
       id="path40"
       d="m 340.91459,371.59315 -51.90659,5.44701 c -1.97851,0.20474 -1.97824,3.34964 0.0258,3.13014 l 51.9066,-5.447 c 1.9785,-0.20474 1.97823,-3.34965 -0.0258,-3.13015 z"
       inkscape:connector-curvature="0" />
    <path
       style="stroke-width:1.04387593"
       id="path42"
       d="m 339.82828,361.20834 -51.90659,5.44701 c -1.9785,0.20473 -1.97823,3.34964 0.0258,3.13014 l 51.93414,-5.42881 c 1.9785,-0.20474 1.97823,-3.34965 -0.0258,-3.13015 z"
       inkscape:connector-curvature="0" />
    <path
       style="stroke-width:1.04387593"
       id="path44"
       d="m 343.09998,392.35539 -51.90659,5.44701 c -1.97851,0.20474 -1.97824,3.34964 0.0258,3.13015 l 51.90659,-5.44701 c 1.9785,-0.20474 1.97823,-3.34965 -0.0258,-3.13015 z"
       inkscape:connector-curvature="0" />
    <path
       style="stroke-width:1.04387593"
       id="path46"
       d="m 344.17547,402.78054 -51.90659,5.447 c -1.9785,0.20474 -1.97823,3.34965 0.0258,3.13015 l 51.90659,-5.44701 c 1.97851,-0.20473 1.97824,-3.34964 -0.0258,-3.13014 z"
       inkscape:connector-curvature="0" />
    <circle
       id="circle48"
       transform="rotate(9.8100012)"
       r="15.658138"
       cy="302.08215"
       cx="332.4895"
       class="cls-11"
       style="fill:#1b1464;stroke-width:1.04387581" />
    <g
       id="g82"
       transform="matrix(0.16841089,0,0,0.17625571,4.8193237,-22.03214)">
      <path
         d="m 1159.2,1629.8 c -134.01,0 -272.17,-37.984 -411.52,-113.25 -12.181,-6.5785 -16.722,-21.785 -10.143,-33.966 6.58,-12.184 21.792,-16.709 33.966,-10.143 299.3,161.66 575.66,142.08 844.85,-59.876 11.07,-8.3103 26.785,-6.0643 35.092,5.0088 8.3073,11.073 6.0645,26.785 -5.0088,35.092 -139.41,104.59 -284.96,163.47 -432.61,175.01 -18.123,1.4166 -36.347,2.1235 -54.629,2.1235 z"
         id="path2"
         inkscape:connector-curvature="0" />
      <path
         d="m 39.78,764.75 2122.7,-131.59 c 47.457,445.62 -52.643,633.08 -240.47,688.52 -171.2,50.527 -349.26,57.615 -524.02,-46.214 -86.143,-51.179 -145.81,-123.29 -192.69,-194.26 l -111.23,-14.099 c -71.173,234.84 -219.84,370.46 -448.05,380.68 -421.53,18.887 -597.99,-251.91 -606.27,-683.03 z"
         id="path4"
         inkscape:connector-curvature="0" />
      <path
         d="m 237.17,1213.6 c 141.65,24.198 287.73,34.726 422.98,0 134.22,-34.461 238.9,-130.56 333.68,-226.37 -34.987,174.41 -210.45,308.75 -457.44,347 C 392.35,1356.538 285,1311.573 237.17,1213.6 Z"
         id="path6"
         inkscape:connector-curvature="0"
         style="fill:#ffffff" />
      <path
         d="m 204.26,837.69 c 176.56,-59.637 457.13,-49.183 712.03,-21.246 0,0 -261.71,23.997 -348.57,35.248 -145.65,18.868 -240.21,103.13 -387.73,173.11 -30.905,6.9215 -39.748,-35.375 -39.393,-98.191 0.2266,-40.122 25.648,-76.081 63.661,-88.92 z"
         id="path8-3"
         inkscape:connector-curvature="0"
         style="fill:#ffffff" />
      <path
         d="m 1205.3,814.88 c 1.588,-23.252 15.356,-40.879 43.865,-51.698 258.78,-43.354 502.22,-67.127 722.56,-61.396 6.4066,0.1666 9.9869,7.9102 5.6072,12.589 -5.9556,6.3618 -17.272,10.392 -34.172,11.992 -128.3,0.1544 -258.91,25.834 -391.53,73.768 -44.231,15.987 -85.469,39.356 -121.78,69.248 -39.867,32.821 -79.246,63.38 -118.03,91.189 -0.1991,0.0765 -0.3979,0.1525 -0.5967,0.2277 -26.397,9.9893 -56.22,-1.8204 -69.17,-26.899 -19.553,-37.867 -32.272,-77.426 -36.762,-119.02 z"
         id="path10-6"
         inkscape:connector-curvature="0"
         style="fill:#ffffff" />
      <path
         d="m 1362.5,1147.5 c -5.3496,-6.0817 -0.015,-15.519 7.9662,-14.14 272.23,47.034 460.54,35.324 567.49,-33.341 l 162.24,-107.36 c 5.8391,-3.8638 13.45,0.9634 12.555,7.9077 -11.795,91.521 -110.82,156.05 -256.78,211.2 -205.22,77.532 -373.47,72.155 -493.47,-64.27 z"
         id="path12"
         inkscape:connector-curvature="0"
         style="fill:#ffffff" />
      <path
         d="m 541.61,218.01 c 7.7767,-5.923 29.459,-26.064 37.557,-35.641 15.291,-17.533 35.682,-31.07 55.316,-43.191 51.382,-31.846 111.98,-50.842 172.18,-55.862 47.793,-4.4989 93.711,-0.9386 140.22,10.286 17.421,4.5643 41.592,8.7875 56.438,19.237 26.943,10.6 13.751,52.249 -14.224,45.702 -35.393,-0.0444 -70.186,-14.241 -106.89,-11.86 -50.427,3.4025 -97.409,17.847 -141.11,43.272 -38.678,22.506 -75.419,60.055 -117.26,74.879 -10.798,3.7868 -26.307,11.9 -36.393,14.084 -28.931,6.2651 -37.466,-19.13 -44.777,-36.885 -0.0314,-0.0763 -6.2664,-8.355 -1.0444,-24.021 z"
         id="path14"
         inkscape:connector-curvature="0" />
      <path
         d="m 1336.9,52.891 c 98.718,-65.317 303,14.1 382.04,162.1 5.067,9.4872 0.4943,21.385 -9.7161,24.766 -34.849,11.538 -72.467,-4.4156 -112.8,-47.313 -0.6598,-0.7019 -1.2692,-1.478 -1.8035,-2.2796 -36.664,-55.003 -83.502,-91.181 -144.07,-101.95 -3.8615,-0.6863 -7.8705,0.0458 -11.274,1.9944 -35.741,20.463 -69.627,14.209 -102.37,-8.4638 -10.121,-7.0083 -10.269,-22.062 0,-28.856 z"
         id="path16"
         inkscape:connector-curvature="0" />
      <path
         d="m 409.4,711.54 0.4073,-0.0314 c 0.4701,-2.2872 0.9711,-4.5432 1.4729,-6.799 -0.6582,2.2559 -1.2851,4.5431 -1.8802,6.8304 z M 744.74,444.62 C 580.84,449.8522 514.08,561.74 505.62,706.24 L 949.5,681.832 c -0.4074,-145.07 -59.906,-241.85 -204.75,-237.21 z m 8.3653,168.69 c -35.186,0 -63.728,-21.995 -63.728,-49.097 0,-27.102 28.543,-49.097 63.728,-49.097 35.186,0 63.698,21.995 63.698,49.097 0,27.102 -28.512,49.097 -63.698,49.097 z"
         id="path18"
         inkscape:connector-curvature="0" />
      <path
         d="m 753.11,515.13 c 35.186,0 63.698,21.995 63.698,49.097 0,27.102 -28.512,49.097 -63.698,49.097 -35.186,0 -63.729,-21.995 -63.729,-49.097 -10e-5,-27.102 28.543,-49.097 63.729,-49.097 z"
         id="path20"
         inkscape:connector-curvature="0"
         style="fill:#ffffff" />
      <path
         d="m 1010.3,678.49 -60.752,3.3525 c -0.4074,-145.07 -59.906,-241.85 -204.75,-237.21 -163.9,5.2322 -230.66,117.12 -239.12,261.62 l -95.813,5.2637 c 0.4701,-2.2872 0.9711,-4.5432 1.4729,-6.799 55.05,-199.24 175.8,-306.8 350.63,-311.5 3.4468,-0.0937 6.8615,-0.1564 10.214,-0.1564 152.74,1e-4 232.8,96.032 238.12,285.43 z"
         id="path22"
         inkscape:connector-curvature="0"
         style="fill:#ffffff" />
      <path
         d="m 1045,694.69 c -0.5641,-104.59 -22.496,-186.36 -65.139,-243.07 -46.434,-61.724 -116.34,-93.024 -207.73,-93.024 -3.6656,0 -7.3942,0.0627 -11.154,0.1564 -97.034,2.6321 -179.88,34.747 -246.14,95.468 -68.334,62.601 -116.96,154.06 -144.56,271.9 l -5.2635,22.371 585.22,-32.178 94.872,-5.2324 -0.094,-16.386 z m -95.5,-12.846 -443.88,24.408 -95.813,5.2637 -0.4073,0.0314 c 0.5951,-2.2874 1.222,-4.5745 1.8802,-6.8303 55.05,-199.24 175.8,-306.8 350.63,-311.5 3.4468,-0.0937 6.8615,-0.1564 10.214,-0.1564 152.74,0 232.8,96.032 238.12,285.43 l -60.752,3.3525 z"
         id="path24"
         inkscape:connector-curvature="0" />
      <path
         d="m 1579.7,663.54 c 5.9845,-7.0811 9.4309,-15.509 9.4309,-24.502 0,-25.536 -27.698,-46.246 -61.88,-46.246 -34.182,0 -61.88,20.71 -61.88,46.246 0,11.311 5.4517,21.65 14.475,29.64 l -155.41,8.0209 c 17.076,-89.891 73.849,-146.13 195.76,-152.02 80.773,-3.9165 146.76,47.248 212.87,131 l -153.37,7.8642 z"
         id="path26"
         inkscape:connector-curvature="0" />
      <path
         d="m 1589.1,639.04 c 0,8.9922 -3.4464,17.42 -9.4309,24.502 l -99.854,5.1384 c -9.0236,-7.9897 -14.475,-18.329 -14.475,-29.64 0,-25.536 27.698,-46.246 61.88,-46.246 34.182,0 61.88,20.71 61.88,46.246 z"
         id="path28"
         inkscape:connector-curvature="0"
         style="fill:#ffffff" />
      <path
         d="m 1807.1,651.86 -74.006,3.8226 c -66.11,-83.75 -132.09,-134.91 -212.87,-131 -121.91,5.8904 -178.69,62.131 -195.76,152.02 l -64.23,3.2898 c 21.556,-138.46 97.41,-210.17 225.65,-213.15 2.8823,-0.0623 5.7649,-0.0937 8.6476,-0.0937 107.25,0 201.78,46.81 281.86,139.36 10.935,14.444 21.18,29.734 30.705,45.744 z"
         id="path30"
         inkscape:connector-curvature="0"
         style="fill:#ffffff" />
      <path
         d="M 1853.7,657.25 C 1755.538,506.83 1631.56,432.1 1485.11,435.51 c -73.223,1.7234 -132.6,24.47 -176.49,67.677 -44.742,44.021 -72.345,108.47 -82.058,191.59 l -2.1307,18.423 644.15,-33.18 -14.883,-22.778 z m -46.621,-5.3892 -74.006,3.8226 -153.37,7.8643 -99.854,5.1384 -155.41,8.0209 -64.23,3.2898 c 21.556,-138.46 97.41,-210.17 225.65,-213.15 2.8823,-0.0623 5.7649,-0.0937 8.6476,-0.0937 107.25,0 201.78,46.81 281.86,139.36 12.188,14.099 24.063,29.264 35.593,45.494 l -4.8877,0.2505 z"
         id="path32"
         inkscape:connector-curvature="0" />
    </g>
  </g>
</svg>
